<?xml version="1.0" encoding="utf-8"?>
<!-- Generator: Adobe Illustrator 23.0.2, SVG Export Plug-In . SVG Version: 6.00 Build 0)  -->
<svg version="1.1" id="Layer_1" xmlns="http://www.w3.org/2000/svg" xmlns:xlink="http://www.w3.org/1999/xlink" x="0px" y="0px"
	 viewBox="0 0 29.3 29" style="enable-background:new 0 0 29.3 29;" xml:space="preserve">
<style type="text/css">
	.st0{fill:#5F6160;}
	.st1{fill:#5E6060;}
	.st2{fill:none;stroke:#5E6060;stroke-width:8;stroke-linecap:round;stroke-miterlimit:10;}
	.st3{fill:none;stroke:#5E6060;stroke-width:4;stroke-linecap:round;stroke-miterlimit:10;}
	.st4{fill:#FFFFFF;}
	.st5{fill:#004C73;}
</style>
<image style="overflow:visible;" width="800" height="800" xlink:href="WhatsApp Image 2019-11-06 at 8.15.56 PM.jpeg"  transform="matrix(1 0 0 1 -2191.9106 1024.7026)">
</image>
<text transform="matrix(1 0 0 1 -1398.5336 670.7416)" class="st0" style="font-family:'Montserrat-Medium'; font-size:158.5326px;">espace</text>
<rect x="-1212.7" y="855.3" class="st0" width="236.1" height="135.5"/>
<g>
	<g>
		<g>
			<path class="st1" d="M-1115.9,508.2c-124.9,0-226.6-101.6-226.6-226.6S-1240.8,55-1115.9,55c124.9,0,226.6,101.6,226.6,226.6
				S-990.9,508.2-1115.9,508.2z M-1115.9,60.6c-121.8,0-221,99.1-221,221s99.1,221,221,221s221-99.1,221-221S-994,60.6-1115.9,60.6z
				"/>
		</g>
	</g>
	<g>
		<g>
			<path class="st1" d="M-978.1,455.5h-273.6c-3.6,0-6.8-2-8.4-5.3c-1.5-3.3-1-7.1,1.3-9.8l134.9-160.3L-1258.8,120
				c-2.3-2.8-2.8-6.5-1.3-9.8s4.7-5.3,8.4-5.3H-977c3.1,0,5.6,2.5,5.6,5.6c0,3.1-2.5,5.6-5.6,5.6h-270.4l138.2,164l-138.2,164.3
				h269.3c3.1,0,5.6,2.5,5.6,5.6S-975,455.5-978.1,455.5z M-1250.1,447.6L-1250.1,447.6C-1250.1,447.6-1250.1,447.6-1250.1,447.6z"
				/>
		</g>
	</g>
	<g>
		<g>
			<path class="st2" d="M-1058.1,116.4"/>
		</g>
	</g>
	<g>
		<g>
			<path class="st1" d="M-1063,452.7c-0.6,0-1.3-0.2-1.8-0.7c-1.2-1-1.3-2.8-0.3-4l168.5-199.9c1-1.2,2.8-1.3,4-0.3
				c1.2,1,1.3,2.8,0.3,4l-168.5,199.9C-1061.4,452.4-1062.2,452.7-1063,452.7z"/>
		</g>
	</g>
	<g>
		<g>
			<path class="st1" d="M-974.9,454.1c-1.5,0-2.8-1.3-2.8-2.8v-105c0-1.5,1.3-2.8,2.8-2.8c1.5,0,2.8,1.3,2.8,2.8v105
				C-972.1,452.9-973.3,454.1-974.9,454.1z"/>
		</g>
	</g>
	<g>
		<g>
			<path class="st1" d="M-974.9,218.5c-1.5,0-2.8-4.3-2.8-5.8V108.2c0-1.5,1.3-2.8,2.8-2.8c1.5,0,2.8,1.3,2.8,2.8v107.4
				C-972.1,217.2-973.3,218.5-974.9,218.5z"/>
		</g>
	</g>
	<g>
		<g>
			<path class="st1" d="M-1324.4,363.1c-0.6,0-1.3-0.2-1.8-0.7c-1.2-1-1.4-2.8-0.4-4l138.2-165.8c1-1.2,2.8-1.4,4-0.4
				c1.2,1,1.4,2.8,0.4,4l-138.2,165.8C-1322.8,362.7-1323.6,363.1-1324.4,363.1z"/>
		</g>
	</g>
	<g>
		<g>
			<path class="st1" d="M-894.3,313.1c-0.8,0-1.6-0.3-2.1-1l-168.7-199.9c-1-1.2-0.8-3,0.3-4c1.2-1,3-0.8,4,0.3l168.7,199.9
				c1,1.2,0.8,3-0.3,4C-893.1,312.9-893.7,313.1-894.3,313.1z"/>
		</g>
	</g>
</g>
<g>
	<circle class="st3" cx="-2151.7" cy="297" r="159.5"/>
	<path class="st2" d="M-2053.5,417h-195c-2.2,0-3.4-2.6-2-4.2l98.3-116.9l-98.3-116.7c-1.4-1.7-0.2-4.2,2-4.2h195.8"/>
	<path class="st2" d="M-2110.5,179.2"/>
	<line class="st3" x1="-2114.1" y1="417" x2="-1994" y2="274.5"/>
	<line class="st3" x1="-2051.2" y1="343.1" x2="-2051.2" y2="418"/>
	<line class="st3" x1="-2051.2" y1="173.4" x2="-2051.2" y2="250"/>
	<line class="st3" x1="-2201.8" y1="234.9" x2="-2300.4" y2="353.1"/>
	<line class="st3" x1="-1993.8" y1="317.5" x2="-2114.1" y2="175"/>
</g>
<polygon class="st1" points="-1256.8,438.1 -1264.5,447.3 -1257.5,455.7 "/>
<polygon class="st1" points="-1257.5,121.5 -1262.7,115.2 -1258.7,111.5 "/>
<g>
	<g>
		<path class="st0" d="M-83.4,28.7H-87c0.1,0.4,0.2,0.7,0.5,1c0.3,0.2,0.7,0.4,1.1,0.4c0.5,0,1-0.2,1.3-0.5l0.4,0.5
			c-0.2,0.2-0.5,0.4-0.8,0.5c-0.3,0.1-0.6,0.2-1,0.2c-0.5,0-0.9-0.1-1.3-0.3c-0.4-0.2-0.7-0.5-0.9-0.8c-0.2-0.3-0.3-0.7-0.3-1.2
			c0-0.4,0.1-0.8,0.3-1.2c0.2-0.3,0.5-0.6,0.8-0.8c0.3-0.2,0.7-0.3,1.2-0.3c0.4,0,0.8,0.1,1.1,0.3c0.3,0.2,0.6,0.5,0.8,0.8
			c0.2,0.4,0.3,0.8,0.3,1.2C-83.3,28.5-83.3,28.6-83.4,28.7z M-86.5,27.1c-0.3,0.2-0.4,0.5-0.5,0.9h2.9c0-0.4-0.2-0.7-0.5-0.9
			c-0.3-0.2-0.6-0.4-1-0.4C-85.9,26.8-86.3,26.9-86.5,27.1z"/>
		<path class="st0" d="M-82,30.5c-0.3-0.1-0.6-0.2-0.8-0.4l0.3-0.6c0.2,0.1,0.4,0.3,0.7,0.3c0.3,0.1,0.6,0.1,0.9,0.1
			c0.7,0,1.1-0.2,1.1-0.6c0-0.1,0-0.2-0.1-0.3c-0.1-0.1-0.2-0.1-0.4-0.2c-0.1,0-0.3-0.1-0.6-0.1c-0.4-0.1-0.7-0.1-0.9-0.2
			c-0.2-0.1-0.4-0.2-0.6-0.4c-0.2-0.2-0.2-0.4-0.2-0.7c0-0.4,0.2-0.7,0.5-1c0.3-0.2,0.8-0.4,1.4-0.4c0.3,0,0.6,0,0.9,0.1
			c0.3,0.1,0.5,0.2,0.7,0.3l-0.3,0.6c-0.4-0.2-0.8-0.4-1.3-0.4c-0.3,0-0.6,0.1-0.8,0.2c-0.2,0.1-0.3,0.3-0.3,0.4
			c0,0.1,0.1,0.3,0.2,0.3c0.1,0.1,0.2,0.1,0.4,0.2c0.1,0,0.4,0.1,0.6,0.1c0.4,0.1,0.7,0.1,0.9,0.2c0.2,0.1,0.4,0.2,0.6,0.4
			c0.2,0.2,0.2,0.4,0.2,0.7c0,0.4-0.2,0.7-0.5,1c-0.3,0.2-0.8,0.4-1.4,0.4C-81.3,30.7-81.6,30.6-82,30.5z"/>
		<path class="st0" d="M-74.4,26.4c0.3,0.2,0.6,0.5,0.8,0.8c0.2,0.3,0.3,0.7,0.3,1.2c0,0.5-0.1,0.9-0.3,1.2
			c-0.2,0.3-0.5,0.6-0.8,0.8c-0.3,0.2-0.7,0.3-1.2,0.3c-0.3,0-0.6-0.1-0.9-0.2c-0.3-0.1-0.5-0.3-0.7-0.5v2.3H-78v-6.1h0.8v0.7
			c0.2-0.2,0.4-0.4,0.7-0.6c0.3-0.1,0.6-0.2,0.9-0.2C-75.2,26.1-74.8,26.2-74.4,26.4z M-74.9,29.8c0.2-0.1,0.4-0.3,0.5-0.6
			c0.1-0.2,0.2-0.5,0.2-0.8c0-0.3-0.1-0.6-0.2-0.8c-0.1-0.2-0.3-0.4-0.5-0.6c-0.2-0.1-0.5-0.2-0.8-0.2c-0.3,0-0.5,0.1-0.8,0.2
			c-0.2,0.1-0.4,0.3-0.5,0.6c-0.1,0.2-0.2,0.5-0.2,0.8c0,0.3,0.1,0.6,0.2,0.8c0.1,0.2,0.3,0.4,0.5,0.6c0.2,0.1,0.5,0.2,0.8,0.2
			C-75.4,30-75.1,29.9-74.9,29.8z"/>
		<path class="st0" d="M-69.2,26.6c0.3,0.3,0.5,0.8,0.5,1.4v2.7h-0.8V30c-0.1,0.2-0.3,0.4-0.6,0.5c-0.3,0.1-0.5,0.2-0.9,0.2
			c-0.5,0-0.9-0.1-1.2-0.4c-0.3-0.2-0.5-0.6-0.5-1c0-0.4,0.1-0.7,0.4-1c0.3-0.2,0.7-0.4,1.4-0.4h1.3v-0.2c0-0.3-0.1-0.6-0.3-0.8
			c-0.2-0.2-0.5-0.3-0.9-0.3c-0.3,0-0.5,0-0.8,0.1c-0.3,0.1-0.5,0.2-0.6,0.4l-0.3-0.6c0.2-0.2,0.5-0.3,0.8-0.4
			c0.3-0.1,0.7-0.1,1-0.1C-70,26.1-69.5,26.3-69.2,26.6z M-70,29.9c0.2-0.1,0.4-0.3,0.5-0.6v-0.6h-1.3c-0.7,0-1,0.2-1,0.7
			c0,0.2,0.1,0.4,0.3,0.5c0.2,0.1,0.4,0.2,0.7,0.2S-70.2,30-70,29.9z"/>
		<path class="st0" d="M-66.4,30.4c-0.4-0.2-0.6-0.5-0.8-0.8c-0.2-0.3-0.3-0.7-0.3-1.2c0-0.4,0.1-0.8,0.3-1.2
			c0.2-0.3,0.5-0.6,0.8-0.8c0.4-0.2,0.8-0.3,1.2-0.3c0.4,0,0.8,0.1,1.1,0.2c0.3,0.2,0.6,0.4,0.7,0.7l-0.6,0.4
			c-0.1-0.2-0.3-0.4-0.5-0.5c-0.2-0.1-0.4-0.2-0.7-0.2c-0.3,0-0.6,0.1-0.8,0.2c-0.2,0.1-0.4,0.3-0.6,0.6c-0.1,0.2-0.2,0.5-0.2,0.8
			c0,0.3,0.1,0.6,0.2,0.8c0.1,0.2,0.3,0.4,0.6,0.6c0.2,0.1,0.5,0.2,0.8,0.2c0.3,0,0.5-0.1,0.7-0.2c0.2-0.1,0.4-0.3,0.5-0.5l0.6,0.4
			c-0.2,0.3-0.4,0.5-0.7,0.7c-0.3,0.2-0.7,0.2-1.1,0.2C-65.6,30.7-66.1,30.6-66.4,30.4z"/>
		<path class="st0" d="M-58.3,28.7H-62c0.1,0.4,0.2,0.7,0.5,1c0.3,0.2,0.7,0.4,1.1,0.4c0.5,0,1-0.2,1.3-0.5l0.4,0.5
			c-0.2,0.2-0.5,0.4-0.8,0.5c-0.3,0.1-0.6,0.2-1,0.2c-0.5,0-0.9-0.1-1.3-0.3c-0.4-0.2-0.7-0.5-0.9-0.8c-0.2-0.3-0.3-0.7-0.3-1.2
			c0-0.4,0.1-0.8,0.3-1.2c0.2-0.3,0.5-0.6,0.8-0.8c0.3-0.2,0.7-0.3,1.2-0.3c0.4,0,0.8,0.1,1.1,0.3c0.3,0.2,0.6,0.5,0.8,0.8
			c0.2,0.4,0.3,0.8,0.3,1.2C-58.3,28.5-58.3,28.6-58.3,28.7z M-61.5,27.1c-0.3,0.2-0.4,0.5-0.5,0.9h2.9c0-0.4-0.2-0.7-0.5-0.9
			c-0.3-0.2-0.6-0.4-1-0.4C-60.9,26.8-61.3,26.9-61.5,27.1z"/>
	</g>
	<g>
		<g>
			<g>
				<path class="st1" d="M-73.1,22c-6.7,0-12.1-5.4-12.1-12.1s5.4-12.1,12.1-12.1C-66.4-2.2-61,3.2-61,9.9S-66.4,22-73.1,22z
					 M-73.1-1.9c-6.5,0-11.8,5.3-11.8,11.8s5.3,11.8,11.8,11.8s11.8-5.3,11.8-11.8S-66.6-1.9-73.1-1.9z"/>
			</g>
		</g>
		<g>
			<g>
				<path class="st1" d="M-65.7,19.1h-14.6c-0.2,0-0.4-0.1-0.4-0.3c-0.1-0.2-0.1-0.4,0.1-0.5l7.2-8.6l-7.2-8.5
					c-0.1-0.1-0.2-0.3-0.1-0.5c0.1-0.2,0.3-0.3,0.4-0.3h14.7c0.2,0,0.3,0.1,0.3,0.3S-65.5,1-65.6,1h-14.4l7.4,8.8l-7.4,8.8h14.4
					c0.2,0,0.3,0.1,0.3,0.3S-65.5,19.1-65.7,19.1z M-80.2,18.7L-80.2,18.7C-80.2,18.7-80.2,18.7-80.2,18.7z"/>
			</g>
		</g>
		<g>
			<g>
				<path class="st2" d="M-70,1"/>
			</g>
		</g>
		<g>
			<g>
				<path class="st1" d="M-70.2,19C-70.3,19-70.3,19-70.2,19c-0.2-0.1-0.2-0.2-0.1-0.2l9-10.7c0.1-0.1,0.1-0.1,0.2,0
					c0.1,0.1,0.1,0.1,0,0.2l-9,10.7C-70.2,19-70.2,19-70.2,19z"/>
			</g>
		</g>
		<g>
			<g>
				<path class="st1" d="M-65.5,19.1c-0.1,0-0.1-0.1-0.1-0.1v-5.6c0-0.1,0.1-0.1,0.1-0.1c0.1,0,0.1,0.1,0.1,0.1v5.6
					C-65.4,19-65.5,19.1-65.5,19.1z"/>
			</g>
		</g>
		<g>
			<g>
				<path class="st1" d="M-65.5,6.5c-0.1,0-0.1-0.2-0.1-0.3V0.6c0-0.1,0.1-0.1,0.1-0.1c0.1,0,0.1,0.1,0.1,0.1v5.7
					C-65.4,6.4-65.5,6.5-65.5,6.5z"/>
			</g>
		</g>
		<g>
			<g>
				<path class="st1" d="M-84.2,14.2C-84.2,14.2-84.3,14.2-84.2,14.2c-0.2-0.1-0.2-0.2-0.1-0.2l7.4-8.9c0.1-0.1,0.1-0.1,0.2,0
					c0.1,0.1,0.1,0.1,0,0.2l-7.4,8.9C-84.1,14.2-84.2,14.2-84.2,14.2z"/>
			</g>
		</g>
		<g>
			<g>
				<path class="st1" d="M-61.2,11.5c0,0-0.1,0-0.1-0.1l-9-10.7c-0.1-0.1,0-0.2,0-0.2c0.1-0.1,0.2,0,0.2,0l9,10.7
					C-61.1,11.4-61.1,11.4-61.2,11.5C-61.2,11.5-61.2,11.5-61.2,11.5z"/>
			</g>
		</g>
	</g>
</g>
<g>
	<path class="st0" d="M41.9,35.9h-2.5c0,0.3,0.2,0.5,0.4,0.6c0.2,0.2,0.4,0.2,0.7,0.2c0.4,0,0.7-0.1,0.9-0.4l0.3,0.4
		c-0.1,0.2-0.3,0.3-0.5,0.4c-0.2,0.1-0.4,0.1-0.7,0.1c-0.3,0-0.6-0.1-0.8-0.2c-0.2-0.1-0.4-0.3-0.6-0.6c-0.1-0.2-0.2-0.5-0.2-0.8
		c0-0.3,0.1-0.6,0.2-0.8c0.1-0.2,0.3-0.4,0.5-0.6c0.2-0.1,0.5-0.2,0.8-0.2c0.3,0,0.5,0.1,0.8,0.2c0.2,0.1,0.4,0.3,0.5,0.6
		c0.1,0.2,0.2,0.5,0.2,0.8C42,35.8,42,35.8,41.9,35.9z M39.8,34.9c-0.2,0.2-0.3,0.4-0.3,0.6h1.9c0-0.3-0.1-0.5-0.3-0.6
		c-0.2-0.2-0.4-0.2-0.7-0.2S40,34.7,39.8,34.9z"/>
	<path class="st0" d="M42.9,37.1c-0.2-0.1-0.4-0.2-0.5-0.3l0.2-0.4c0.1,0.1,0.3,0.2,0.5,0.2c0.2,0.1,0.4,0.1,0.6,0.1
		c0.5,0,0.7-0.1,0.7-0.4c0-0.1,0-0.2-0.1-0.2c-0.1-0.1-0.1-0.1-0.2-0.1c-0.1,0-0.2-0.1-0.4-0.1c-0.2,0-0.4-0.1-0.6-0.1
		c-0.2,0-0.3-0.1-0.4-0.3c-0.1-0.1-0.2-0.3-0.2-0.5c0-0.3,0.1-0.5,0.3-0.7c0.2-0.2,0.5-0.2,0.9-0.2c0.2,0,0.4,0,0.6,0.1
		c0.2,0,0.4,0.1,0.5,0.2l-0.2,0.4c-0.2-0.2-0.5-0.2-0.9-0.2c-0.2,0-0.4,0-0.5,0.1C43,34.8,43,34.9,43,35c0,0.1,0,0.2,0.1,0.2
		c0.1,0.1,0.2,0.1,0.3,0.1c0.1,0,0.2,0.1,0.4,0.1c0.2,0,0.4,0.1,0.6,0.1c0.2,0,0.3,0.1,0.4,0.2c0.1,0.1,0.2,0.3,0.2,0.5
		c0,0.3-0.1,0.5-0.4,0.7c-0.2,0.2-0.6,0.2-1,0.2C43.3,37.2,43.1,37.2,42.9,37.1z"/>
	<path class="st0" d="M48,34.4c0.2,0.1,0.4,0.3,0.5,0.5c0.1,0.2,0.2,0.5,0.2,0.8c0,0.3-0.1,0.6-0.2,0.8c-0.1,0.2-0.3,0.4-0.5,0.5
		c-0.2,0.1-0.5,0.2-0.8,0.2c-0.2,0-0.4,0-0.6-0.1c-0.2-0.1-0.3-0.2-0.5-0.4v1.6h-0.5v-4.1h0.5v0.5c0.1-0.2,0.3-0.3,0.5-0.4
		c0.2-0.1,0.4-0.1,0.6-0.1C47.5,34.2,47.7,34.2,48,34.4z M47.6,36.6c0.2-0.1,0.3-0.2,0.4-0.4c0.1-0.2,0.1-0.3,0.1-0.6
		c0-0.2,0-0.4-0.1-0.6c-0.1-0.2-0.2-0.3-0.4-0.4c-0.2-0.1-0.3-0.1-0.5-0.1c-0.2,0-0.4,0-0.5,0.1c-0.2,0.1-0.3,0.2-0.4,0.4
		c-0.1,0.2-0.1,0.3-0.1,0.6c0,0.2,0,0.4,0.1,0.6c0.1,0.2,0.2,0.3,0.4,0.4c0.2,0.1,0.3,0.1,0.5,0.1C47.3,36.8,47.5,36.7,47.6,36.6z"
		/>
	<path class="st0" d="M51.5,34.5c0.2,0.2,0.3,0.5,0.3,0.9v1.8h-0.5v-0.4c-0.1,0.1-0.2,0.2-0.4,0.3c-0.2,0.1-0.4,0.1-0.6,0.1
		c-0.3,0-0.6-0.1-0.8-0.2c-0.2-0.2-0.3-0.4-0.3-0.6c0-0.3,0.1-0.5,0.3-0.6c0.2-0.2,0.5-0.2,0.9-0.2h0.9v-0.1c0-0.2-0.1-0.4-0.2-0.5
		c-0.1-0.1-0.3-0.2-0.6-0.2c-0.2,0-0.4,0-0.5,0.1c-0.2,0.1-0.3,0.1-0.4,0.2l-0.2-0.4c0.2-0.1,0.3-0.2,0.6-0.3
		c0.2-0.1,0.4-0.1,0.7-0.1C50.9,34.2,51.3,34.3,51.5,34.5z M50.9,36.7c0.2-0.1,0.3-0.2,0.3-0.4v-0.4h-0.8c-0.5,0-0.7,0.2-0.7,0.5
		c0,0.2,0.1,0.3,0.2,0.4c0.1,0.1,0.3,0.1,0.5,0.1C50.6,36.8,50.8,36.8,50.9,36.7z"/>
	<path class="st0" d="M53.3,37c-0.2-0.1-0.4-0.3-0.6-0.6c-0.1-0.2-0.2-0.5-0.2-0.8c0-0.3,0.1-0.6,0.2-0.8c0.1-0.2,0.3-0.4,0.6-0.5
		c0.2-0.1,0.5-0.2,0.8-0.2c0.3,0,0.5,0.1,0.7,0.2c0.2,0.1,0.4,0.3,0.5,0.5L55,35.1c-0.1-0.1-0.2-0.3-0.4-0.3
		c-0.1-0.1-0.3-0.1-0.5-0.1c-0.2,0-0.4,0-0.5,0.1c-0.2,0.1-0.3,0.2-0.4,0.4c-0.1,0.2-0.1,0.3-0.1,0.6c0,0.2,0,0.4,0.1,0.6
		c0.1,0.2,0.2,0.3,0.4,0.4c0.2,0.1,0.3,0.1,0.5,0.1c0.2,0,0.3,0,0.5-0.1c0.1-0.1,0.3-0.2,0.4-0.3l0.4,0.3c-0.1,0.2-0.3,0.4-0.5,0.5
		c-0.2,0.1-0.5,0.2-0.7,0.2C53.9,37.2,53.6,37.2,53.3,37z"/>
	<path class="st0" d="M58.8,35.9h-2.5c0,0.3,0.2,0.5,0.4,0.6c0.2,0.2,0.4,0.2,0.7,0.2c0.4,0,0.7-0.1,0.9-0.4l0.3,0.4
		c-0.1,0.2-0.3,0.3-0.5,0.4c-0.2,0.1-0.4,0.1-0.7,0.1c-0.3,0-0.6-0.1-0.8-0.2c-0.2-0.1-0.4-0.3-0.6-0.6c-0.1-0.2-0.2-0.5-0.2-0.8
		c0-0.3,0.1-0.6,0.2-0.8c0.1-0.2,0.3-0.4,0.5-0.6c0.2-0.1,0.5-0.2,0.8-0.2c0.3,0,0.5,0.1,0.8,0.2c0.2,0.1,0.4,0.3,0.5,0.6
		c0.1,0.2,0.2,0.5,0.2,0.8C58.8,35.8,58.8,35.8,58.8,35.9z M56.6,34.9c-0.2,0.2-0.3,0.4-0.3,0.6h1.9c0-0.3-0.1-0.5-0.3-0.6
		c-0.2-0.2-0.4-0.2-0.7-0.2C57,34.6,56.8,34.7,56.6,34.9z"/>
</g>
<path class="st4" d="M14.6,26.9c-6.8,0-12.4-5.6-12.4-12.4S7.8,2.1,14.6,2.1c6.1,0,11.4,4.6,12.2,10.6C27,13.4,27,14,27,14.5
	C27,21.3,21.5,26.9,14.6,26.9z M7.5,24c2.1,1.6,4.6,2.4,7.2,2.4s5.1-0.8,7.1-2.4H7.5z M22.5,18.1l0,5.4c2.1-1.9,3.5-4.5,3.9-7.3
	l-1.2-1.3L22.5,18.1z M3.5,18.9c0.7,1.7,1.8,3.2,3.2,4.5c0-0.1,0-0.2,0.1-0.3l7.3-8.7l-3.5-4L3.5,18.9z M22.1,23.3l0-4.7l-3.9,4.7
	H22.1z M17.6,23.3l7.5-8.9l-7.5-8.8l-9.8,0l7.4,8.8l-7.4,8.9H17.6z M6.7,5.6c-2.5,2.3-4,5.5-4,8.9c0,1.3,0.2,2.6,0.7,3.9l7-8.4
	L6.8,5.8C6.8,5.7,6.8,5.7,6.7,5.6z M25.5,14.5l1,1.1c0-0.3,0-0.7,0-1c0-0.4,0-0.8-0.1-1.2L25.5,14.5z M22.5,10.8l2.8,3.2l1.2-1.4
	C26,10,24.6,7.4,22.5,5.6V10.8z M22.1,10.3V5.6h-3.9L22.1,10.3z M21.6,4.8c-2-1.5-4.4-2.2-6.9-2.2S9.8,3.4,7.7,4.8H21.6z"/>
<path class="st4" d="M26.8,12.8C26.8,12.8,26.8,12.8,26.8,12.8c-0.9-6-6-10.6-12.2-10.6C7.9,2.2,2.3,7.7,2.3,14.5
	s5.5,12.3,12.3,12.3c6.8,0,12.3-5.5,12.3-12.3C26.9,13.9,26.9,13.3,26.8,12.8z M26.6,14.5c0,0.4,0,0.8-0.1,1.2l-1.1-1.3l1.1-1.3
	C26.6,13.6,26.6,14,26.6,14.5z M26.5,12.7l-1.2,1.4l-2.8-3.4V5.4C24.6,7.3,26.1,9.8,26.5,12.7z M22.1,23.3
	C22.1,23.3,22.1,23.3,22.1,23.3l-4.2,0l4.2-5V23.3z M17.6,23.3H7.5l7.5-8.9L7.5,5.5h10.1l7.5,8.9L17.6,23.3z M22.1,10.5L18,5.5h4.2
	V10.5z M21.8,4.9H7.5c2-1.5,4.5-2.4,7.2-2.4C17.3,2.5,19.8,3.4,21.8,4.9z M6.8,5.5c0,0.1,0.1,0.2,0.1,0.3l3.6,4.2l-7.1,8.5
	c-0.4-1.3-0.7-2.6-0.7-4C2.6,10.9,4.3,7.7,6.8,5.5z M3.5,18.8l7.2-8.6l3.5,4.2l-7.3,8.7c-0.1,0.1-0.1,0.3-0.1,0.4
	C5.3,22.3,4.2,20.7,3.5,18.8z M7.3,23.9H22c-2,1.6-4.6,2.6-7.4,2.6C11.9,26.5,9.3,25.5,7.3,23.9z M22.5,23.6V18l2.8-3.4l1.2,1.5
	C26.1,19.1,24.6,21.7,22.5,23.6z"/>
<polygon class="st1" points="-91.1,-475.9 -92,-474.9 -91.2,-474 "/>
<polygon class="st1" points="-91.2,-511.4 -91.8,-512.1 -91.4,-512.6 "/>
<rect x="-607.8" y="983.2" class="st5" width="84.4" height="79.7"/>
</svg>
